<?xml version="1.0" encoding="UTF-8" standalone="no"?>
<svg width="34px" height="29px" viewBox="0 0 34 29" version="1.1" xmlns="http://www.w3.org/2000/svg" xmlns:xlink="http://www.w3.org/1999/xlink">
    <!-- Generator: Sketch 3.8.2 (29753) - http://www.bohemiancoding.com/sketch -->
    <title>Group 2</title>
    <desc>Created with Sketch.</desc>
    <defs></defs>
    <g id="Welcome" stroke="none" stroke-width="1" fill="none" fill-rule="evenodd">
        <g id="My-Website" transform="translate(-19.000000, -27.000000)">
            <g id="Intro" transform="translate(-216.000000, -75.000000)">
                <g id="Group-2" transform="translate(235.000000, 102.000000)">
                    <path d="M27.79,20.645 C27.79,20.2849982 27.8574993,19.9500016 27.9925,19.64 C28.1275007,19.3299985 28.3124988,19.0600012 28.5475,18.83 C28.7825012,18.5999989 29.0599984,18.4175007 29.38,18.2825 C29.7000016,18.1474993 30.0499981,18.08 30.43,18.08 C30.8000018,18.08 31.1449984,18.1474993 31.465,18.2825 C31.7850016,18.4175007 32.0649988,18.5999989 32.305,18.83 C32.5450012,19.0600012 32.7324993,19.3299985 32.8675,19.64 C33.0025007,19.9500016 33.07,20.2849982 33.07,20.645 C33.07,21.0050018 33.0025007,21.3424984 32.8675,21.6575 C32.7324993,21.9725016 32.5450012,22.2449989 32.305,22.475 C32.0649988,22.7050012 31.7850016,22.8849994 31.465,23.015 C31.1449984,23.1450007 30.8000018,23.21 30.43,23.21 C30.0499981,23.21 29.7000016,23.1450007 29.38,23.015 C29.0599984,22.8849994 28.7825012,22.7050012 28.5475,22.475 C28.3124988,22.2449989 28.1275007,21.9725016 27.9925,21.6575 C27.8574993,21.3424984 27.79,21.0050018 27.79,20.645 L27.79,20.645 Z" id="Path" fill="#00FFD4"></path>
                    <path d="M7.6,7.445 L7.6,23.03 C7.6,23.7600037 7.50750092,24.4474968 7.3225,25.0925 C7.13749907,25.7375032 6.83250212,26.3024976 6.4075,26.7875 C5.98249787,27.2725024 5.42250347,27.6549986 4.7275,27.935 C4.03249652,28.2150014 3.17000515,28.355 2.14,28.355 C1.7599981,28.355 1.40750162,28.3325002 1.0825,28.2875 C0.757498375,28.2424998 0.42000175,28.1750005 0.07,28.085 L0.22,25.64 C0.2400001,25.429999 0.3099994,25.2750005 0.43,25.175 C0.5500006,25.0749995 0.7899982,25.025 1.15,25.025 C1.5100018,25.025 1.80499885,24.9950003 2.035,24.935 C2.26500115,24.8749997 2.44749932,24.7700008 2.5825,24.62 C2.71750067,24.4699993 2.81249972,24.2675013 2.8675,24.0125 C2.92250027,23.7574987 2.95,23.430002 2.95,23.03 L2.95,7.445 L7.6,7.445 Z M8.14,3.185 C8.14,3.55500185 8.06500075,3.90249838 7.915,4.2275 C7.76499925,4.55250163 7.5600013,4.83749878 7.3,5.0825 C7.0399987,5.32750123 6.73750172,5.52249928 6.3925,5.6675 C6.04749827,5.81250073 5.68000195,5.885 5.29,5.885 C4.9099981,5.885 4.55500165,5.81250073 4.225,5.6675 C3.89499835,5.52249928 3.60250127,5.32750123 3.3475,5.0825 C3.09249872,4.83749878 2.89250072,4.55250163 2.7475,4.2275 C2.60249927,3.90249838 2.53,3.55500185 2.53,3.185 C2.53,2.8049981 2.60249927,2.45000165 2.7475,2.12 C2.89250072,1.78999835 3.09249872,1.50000125 3.3475,1.25 C3.60250127,0.99999875 3.89499835,0.8050007 4.225,0.665 C4.55500165,0.5249993 4.9099981,0.455 5.29,0.455 C5.68000195,0.455 6.04749827,0.5249993 6.3925,0.665 C6.73750172,0.8050007 7.0399987,0.99999875 7.3,1.25 C7.5600013,1.50000125 7.76499925,1.78999835 7.915,2.12 C8.06500075,2.45000165 8.14,2.8049981 8.14,3.185 L8.14,3.185 Z M22.21,23 C21.9199986,23 21.677501,22.9350007 21.4825,22.805 C21.287499,22.6749994 21.1500004,22.4800013 21.07,22.22 L20.71,21.035 C20.3999984,21.3650017 20.0750017,21.6649987 19.735,21.935 C19.3949983,22.2050014 19.027502,22.437499 18.6325,22.6325 C18.237498,22.827501 17.8125023,22.9774995 17.3575,23.0825 C16.9024977,23.1875005 16.4100026,23.24 15.88,23.24 C15.0699959,23.24 14.3200035,23.0600018 13.63,22.7 C12.9399965,22.3399982 12.3450025,21.8200034 11.845,21.14 C11.3449975,20.4599966 10.9525014,19.6275049 10.6675,18.6425 C10.3824986,17.6574951 10.24,16.5350063 10.24,15.275 C10.24,14.1149942 10.3999984,13.037505 10.72,12.0425 C11.0400016,11.047495 11.4924971,10.1875036 12.0775,9.4625 C12.6625029,8.73749638 13.3649959,8.17000205 14.185,7.76 C15.0050041,7.34999795 15.909995,7.145 16.9,7.145 C17.700004,7.145 18.3774972,7.26249883 18.9325,7.4975 C19.4875028,7.73250118 19.9899977,8.0399981 20.44,8.42 L20.44,0.545 L25.09,0.545 L25.09,23 L22.21,23 Z M17.5,19.67 C17.8400017,19.67 18.1474986,19.6375003 18.4225,19.5725 C18.6975014,19.5074997 18.9499988,19.4150006 19.18,19.295 C19.4100011,19.1749994 19.627499,19.0250009 19.8325,18.845 C20.037501,18.6649991 20.239999,18.4550012 20.44,18.215 L20.44,11.615 C20.0799982,11.2249981 19.697502,10.9525008 19.2925,10.7975 C18.887498,10.6424992 18.4600022,10.565 18.01,10.565 C17.5799978,10.565 17.1850018,10.6499992 16.825,10.82 C16.4649982,10.9900009 16.1525013,11.2624981 15.8875,11.6375 C15.6224987,12.0125019 15.4150007,12.499997 15.265,13.1 C15.1149992,13.700003 15.04,14.4249958 15.04,15.275 C15.04,16.0950041 15.0999994,16.7849972 15.22,17.345 C15.3400006,17.9050028 15.5074989,18.3574983 15.7225,18.7025 C15.9375011,19.0475017 16.1949985,19.2949993 16.495,19.445 C16.7950015,19.5950008 17.1299981,19.67 17.5,19.67 L17.5,19.67 Z" id="jd." fill="#FFFFFF"></path>
                </g>
            </g>
        </g>
    </g>
</svg>